<svg width="93" height="65" viewBox="0 0 93 65" fill="none" xmlns="http://www.w3.org/2000/svg">
<path d="M7.65563 51.4449C4.68034 51.4449 1.90625 53.5673 1.90625 57.7691C1.90625 62.0138 4.66815 64.0933 7.65563 64.0933C10.6431 64.0933 13.3989 61.9709 13.3989 57.7691C13.3989 53.5244 10.6248 51.4449 7.65563 51.4449ZM7.65563 63.0382C5.83266 63.0382 5.11322 60.7932 5.11322 57.7691C5.11322 54.7573 5.83266 52.4877 7.65563 52.4877C9.47861 52.4877 10.1919 54.7634 10.1919 57.7691C10.1919 60.7932 9.47861 63.0382 7.65563 63.0382Z" fill="white"/>
<path d="M26.5198 51.7822H26.0869H24.5139H22.9409H21.5996V52.7637L22.9592 52.9048C22.9897 54.4137 22.9958 55.9288 22.9958 57.4316V58.1064C22.9958 59.6399 22.9897 61.1489 22.9592 62.6333L21.5996 62.7744V63.7558H22.9409H26.093H27.6965V62.7744L26.0686 62.6026C26.0443 61.3819 26.0443 60.2165 26.0382 59.1737H26.5442C30.4767 59.1737 31.8058 57.4623 31.8058 55.3829C31.7997 53.2115 30.2999 51.7822 26.5198 51.7822ZM26.5625 58.1555H26.0321V57.4316C26.0321 55.8797 26.0382 54.3401 26.0686 52.8311H26.4893C28.0684 52.8311 28.9525 53.696 28.9525 55.3706C28.9525 57.0329 28.1599 58.1555 26.5625 58.1555Z" fill="white"/>
<path d="M47.9022 53.7082H47.6644C47.6705 53.3769 47.6705 53.0457 47.6766 52.7206L49.1459 52.5673V51.5858H47.701H44.8598H43.427V52.5673L44.8842 52.7206C44.8903 53.0457 44.8964 53.3769 44.8964 53.7082H44.6647C41.2078 53.7082 39.6348 55.3644 39.6348 57.7812C39.6348 60.198 41.3053 61.9093 44.6647 61.9093H44.8964C44.8903 62.2099 44.8842 62.5105 44.8781 62.811L43.427 62.9705V63.952H44.8598H47.701H49.1459V62.9705L47.6827 62.811C47.6766 62.5105 47.6705 62.2099 47.6705 61.9093H47.9022C51.2616 61.9093 52.9321 60.1612 52.9321 57.7689C52.9382 55.3766 51.3652 53.7082 47.9022 53.7082ZM44.8171 60.9524C43.0551 60.9524 42.4942 59.3944 42.4942 57.8057C42.4942 56.1311 43.0612 54.659 44.8171 54.659H44.9147C44.9208 55.5484 44.9208 56.4439 44.9208 57.3088V58.2657C44.9208 59.1613 44.9208 60.0569 44.9147 60.9463H44.8171V60.9524ZM47.7498 60.9524H47.6522C47.6461 60.0507 47.6461 59.1552 47.6461 58.2596V57.315C47.6461 56.4378 47.6461 55.5484 47.6522 54.6651H47.7498C49.5057 54.6651 50.0727 56.1618 50.0727 57.8118C50.0788 59.3453 49.5118 60.9524 47.7498 60.9524Z" fill="white"/>
<path d="M68.5645 62.7376H65.1685C65.138 61.2163 65.1319 59.6828 65.1319 58.1125H67.1073L67.3146 59.5295H68.3633V55.6037H67.3146L67.089 57.0391H65.1258C65.1258 55.6098 65.1319 54.199 65.1624 52.8127H68.1987L68.5584 54.9228H70.0704L69.9424 51.7822H65.1807H63.6077H62.0347H60.6934V52.7637L62.053 52.9048C62.0835 54.4137 62.0896 55.9288 62.0896 57.4316V58.1064C62.0896 59.6399 62.0835 61.1489 62.053 62.6333L60.6934 62.7744V63.7558H62.0347H63.6077H65.1807H70.3021L70.4301 60.6152H68.9181L68.5645 62.7376Z" fill="white"/>
<path d="M85.1965 50.9112C87.0744 50.9112 88.5864 50.0157 88.5864 48.2614C88.3913 47.8136 88.0987 47.5743 87.6109 47.5743C87.0805 47.5743 86.5257 47.9301 86.5257 49.1692C86.5257 49.3777 86.5439 49.574 86.5744 49.7703C86.1172 49.9175 85.605 49.985 85.1965 49.985C84.788 49.985 84.282 49.9114 83.8186 49.7703C83.8491 49.574 83.8674 49.3777 83.8674 49.1692C83.8674 47.9301 83.3126 47.5743 82.7821 47.5743C82.2944 47.5743 82.0017 47.8136 81.8066 48.2614C81.8066 50.0157 83.3187 50.9112 85.1965 50.9112Z" fill="white"/>
<path d="M90.3187 52.8987L91.654 52.7576V51.7762H90.3431H87.4532H85.9412V52.7576L87.4288 52.9171L87.4105 53.7574L83.0024 59.9466L83.0573 57.4256C83.0573 55.8921 83.0634 54.3831 83.0939 52.8925L84.4413 52.7515V51.77H83.1122H80.0394H78.7285V52.7515L80.0637 52.8925C80.0942 54.4015 80.1003 55.9166 80.1003 57.4194V58.0942C80.1003 59.6215 80.0942 61.1366 80.0637 62.6211L78.7285 62.7622V63.7436H80.0394H82.9293H84.4413V62.7622L82.9537 62.6088L82.972 61.7562L87.38 55.5792L87.3313 57.9776C87.3313 59.597 87.3313 61.1305 87.3008 62.6211L85.9473 62.7622V63.7436H87.2764H90.3492H91.6601V62.7622L90.3248 62.6211C90.2944 61.1121 90.2883 59.597 90.2883 58.088V57.4133C90.2822 55.8982 90.2883 54.3892 90.3187 52.8987Z" fill="white"/>
<path d="M92.9564 27.3811V14.2605L86.8534 10.7457L66.9531 27.4425L92.9564 27.3811Z" fill="white"/>
<path d="M6.91796 10.7457L0.601562 14.2605V27.3811L26.8183 27.4425L6.91796 10.7457Z" fill="white"/>
<path d="M92.9554 38.1342H66.2266V45.587H92.9554V38.1342Z" fill="white"/>
<path d="M92.9554 29.0559H66.2266V36.5087H92.9554V29.0559Z" fill="white"/>
<path d="M27.5377 38.134H0.601562V45.5868H27.5377V38.134Z" fill="white"/>
<path d="M27.5377 29.0558H0.601562V36.5086H27.5377V29.0558Z" fill="white"/>
<path d="M49.4994 30.8651V27.8717H43.3659V32.8771C43.3659 32.8771 48.1154 35.116 49.9383 36.2937C51.8406 37.5205 49.8957 40.0722 47.6947 39.1092C45.1584 37.9928 42.5428 36.4532 42.5428 36.4532H35.6289C35.6289 36.4532 39.5675 39.2809 43.372 41.5076C45.9327 43.0043 47.4325 43.1208 49.5908 42.9859C53.7306 42.7283 55.9255 40.336 55.9255 37.1586C55.9316 33.5947 49.4994 30.8651 49.4994 30.8651Z" fill="white"/>
<path d="M46.9572 22.6641C46.9572 22.6641 39.0434 22.0078 29.5078 29.0864V45.593H64.4126V29.0864C54.871 22.0078 46.9572 22.6641 46.9572 22.6641ZM49.6398 43.7958C49.1642 43.8264 48.7862 43.8387 48.4326 43.8387C46.823 43.8387 45.2805 43.5627 42.9637 42.2071C39.1714 39.9866 35.1962 37.1404 35.1596 37.1158L33.1111 35.6437H42.7564L42.9454 35.7541C42.9698 35.7664 45.5488 37.2876 48.0119 38.3672C48.2314 38.4653 48.457 38.5144 48.6704 38.5144C49.3045 38.5144 49.7617 38.1096 49.8715 37.7292C49.902 37.625 49.9934 37.306 49.4996 36.9809C47.7437 35.8461 43.0673 33.6379 43.0186 33.6195L42.5552 33.3986V27.0622H50.3044V30.3378C51.9627 31.1168 56.7305 33.6624 56.7305 37.1588C56.7366 40.9803 54.0174 43.5259 49.6398 43.7958Z" fill="white"/>
<path d="M59.7178 24.081L71.1739 4.40312C71.1739 4.40312 64.1929 2.45865 58.3765 1.86365L52.7734 21.4618C54.7549 21.9464 57.1205 22.7561 59.7178 24.081Z" fill="white"/>
<path d="M65.0891 27.4242L84.3492 9.43931C77.6609 5.99813 72.9175 4.99829 72.9175 4.99829L60.998 24.7559C62.315 25.4981 63.6868 26.3937 65.0891 27.4242Z" fill="white"/>
<path d="M46.2239 20.7196C46.4617 20.7196 46.6446 20.7258 46.7727 20.7319C46.9007 20.7258 47.0897 20.7196 47.3214 20.7196C48.0896 20.7196 49.5772 20.7932 51.5648 21.192L56.0461 1.02948C56.0461 1.02948 49.1748 0.452881 46.8824 0.452881C44.59 0.452881 37.7188 1.02948 37.7188 1.02948L42.1939 21.1551C44.0717 20.7871 45.4862 20.7196 46.2239 20.7196Z" fill="white"/>
<path d="M32.7204 24.6699L20.8497 4.99817C20.8497 4.99817 16.1124 5.99801 9.41797 9.43919L28.5805 27.3321C30.0011 26.2954 31.3851 25.4121 32.7204 24.6699Z" fill="white"/>
<path d="M40.9879 21.4127L35.397 1.85754C29.5806 2.45868 22.5996 4.39702 22.5996 4.39702L34.0008 23.989C36.6286 22.6702 39.0064 21.8851 40.9879 21.4127Z" fill="white"/>
</svg>
