<svg width="70" height="49" viewBox="0 0 70 49" fill="none" xmlns="http://www.w3.org/2000/svg">
<path d="M5.90987 38.7156C3.69145 38.7156 1.62305 40.2937 1.62305 43.4182C1.62305 46.5745 3.68236 48.1207 5.90987 48.1207C8.13738 48.1207 10.1921 46.5426 10.1921 43.4182C10.1921 40.2618 8.12374 38.7156 5.90987 38.7156ZM5.90987 47.3362C4.55063 47.3362 4.01421 45.6668 4.01421 43.4182C4.01421 41.1786 4.55063 39.491 5.90987 39.491C7.26911 39.491 7.80098 41.1832 7.80098 43.4182C7.80098 45.6668 7.26911 47.3362 5.90987 47.3362Z" fill="#424242"/>
<path d="M19.9752 38.9663H19.6525H18.4796H17.3067H16.3066V39.6961L17.3204 39.801C17.3431 40.9231 17.3477 42.0497 17.3477 43.1672V43.6689C17.3477 44.8092 17.3431 45.9312 17.3204 47.035L16.3066 47.14V47.8697H17.3067H19.657H20.8526V47.14L19.6388 47.0122C19.6206 46.1046 19.6206 45.2379 19.6161 44.4625H19.9934C22.9255 44.4625 23.9165 43.19 23.9165 41.6437C23.912 40.0291 22.7937 38.9663 19.9752 38.9663ZM20.007 43.7054H19.6115V43.1672C19.6115 42.0132 19.6161 40.8683 19.6388 39.7463H19.9525C21.1299 39.7463 21.789 40.3894 21.789 41.6346C21.789 42.8707 21.1981 43.7054 20.007 43.7054Z" fill="#424242"/>
<path d="M35.9182 40.3985H35.7409C35.7455 40.1522 35.7455 39.9059 35.75 39.6641L36.8456 39.5501V38.8203H35.7682H33.6498H32.5815V39.5501L33.668 39.6641C33.6725 39.9059 33.6771 40.1522 33.6771 40.3985H33.5043C30.9268 40.3985 29.7539 41.63 29.7539 43.4271C29.7539 45.2242 30.9995 46.4968 33.5043 46.4968H33.6771C33.6725 46.7203 33.668 46.9438 33.6634 47.1673L32.5815 47.2859V48.0157H33.6498H35.7682H36.8456V47.2859L35.7545 47.1673C35.75 46.9438 35.7455 46.7203 35.7455 46.4968H35.9182C38.423 46.4968 39.6686 45.1968 39.6686 43.418C39.6731 41.6391 38.5003 40.3985 35.9182 40.3985ZM33.618 45.7852C32.3042 45.7852 31.886 44.6267 31.886 43.4454C31.886 42.2001 32.3087 41.1055 33.618 41.1055H33.6907C33.6952 41.7668 33.6952 42.4328 33.6952 43.0759V43.7874C33.6952 44.4534 33.6952 45.1193 33.6907 45.7807H33.618V45.7852ZM35.8046 45.7852H35.7318C35.7273 45.1147 35.7273 44.4488 35.7273 43.7829V43.0805C35.7273 42.4282 35.7273 41.7668 35.7318 41.11H35.8046C37.1138 41.11 37.5366 42.223 37.5366 43.4499C37.5411 44.5902 37.1183 45.7852 35.8046 45.7852Z" fill="#424242"/>
<path d="M51.3239 47.1126H48.7918C48.7691 45.9814 48.7645 44.8411 48.7645 43.6734H50.2374L50.392 44.7271H51.1739V41.8079H50.392L50.2238 42.8752H48.76C48.76 41.8125 48.7645 40.7634 48.7873 39.7326H51.0511L51.3193 41.3016H52.4467L52.3513 38.9663H48.8009H47.628H46.4552H45.4551V39.6961L46.4688 39.801C46.4916 40.9231 46.4961 42.0497 46.4961 43.1672V43.6689C46.4961 44.8092 46.4916 45.9312 46.4688 47.035L45.4551 47.14V47.8697H46.4552H47.628H48.8009H52.6195L52.7149 45.5344H51.5876L51.3239 47.1126Z" fill="#424242"/>
<path d="M63.7248 38.3187C65.125 38.3187 66.2523 37.6528 66.2523 36.3483C66.1069 36.0153 65.8887 35.8374 65.525 35.8374C65.1295 35.8374 64.7158 36.102 64.7158 37.0233C64.7158 37.1784 64.7295 37.3243 64.7522 37.4703C64.4112 37.5798 64.0294 37.6299 63.7248 37.6299C63.4202 37.6299 63.0429 37.5752 62.6974 37.4703C62.7202 37.3243 62.7338 37.1784 62.7338 37.0233C62.7338 36.102 62.3201 35.8374 61.9246 35.8374C61.5609 35.8374 61.3427 36.0153 61.1973 36.3483C61.1973 37.6528 62.3247 38.3187 63.7248 38.3187Z" fill="#424242"/>
<path d="M67.5442 39.7965L68.5397 39.6916V38.9618H67.5624H65.4076H64.2802V39.6916L65.3894 39.8102L65.3758 40.4351L62.089 45.0373L62.13 43.1627C62.13 42.0224 62.1345 40.9003 62.1572 39.792L63.1619 39.6871V38.9573H62.1709H59.8797H58.9023V39.6871L59.8979 39.792C59.9206 40.914 59.9252 42.0406 59.9252 43.1581V43.6599C59.9252 44.7956 59.9206 45.9222 59.8979 47.026L58.9023 47.1309V47.8607H59.8797H62.0345H63.1619V47.1309L62.0527 47.0169L62.0663 46.3829L65.353 41.7898L65.3167 43.5732C65.3167 44.7773 65.3167 45.9176 65.2939 47.026L64.2847 47.1309V47.8607H65.2758H67.5669H68.5443V47.1309L67.5487 47.026C67.526 45.904 67.5215 44.7773 67.5215 43.6553V43.1536C67.5169 42.027 67.5214 40.9049 67.5442 39.7965Z" fill="#424242"/>
<path d="M69.5115 20.8218V11.0655L64.961 8.4519L50.123 20.8674L69.5115 20.8218Z" fill="#424242"/>
<path d="M5.35998 8.4519L0.650391 11.0655V20.8218L20.1979 20.8674L5.35998 8.4519Z" fill="#424242"/>
<path d="M69.5114 28.8176H49.582V34.3595H69.5114V28.8176Z" fill="#424242"/>
<path d="M69.5114 22.0671H49.582V27.609H69.5114V22.0671Z" fill="#424242"/>
<path d="M20.7344 28.8176H0.650391V34.3595H20.7344V28.8176Z" fill="#424242"/>
<path d="M20.7344 22.0671H0.650391V27.609H20.7344V22.0671Z" fill="#424242"/>
<path d="M37.1096 23.4126V21.1868H32.5364V24.9087C32.5364 24.9087 36.0777 26.5735 37.4369 27.4493C38.8552 28.3615 37.4051 30.259 35.764 29.5429C33.8729 28.7127 31.9227 27.5679 31.9227 27.5679H26.7676C26.7676 27.5679 29.7043 29.6706 32.5409 31.3263C34.4502 32.4392 35.5685 32.5259 37.1778 32.4255C40.2645 32.234 41.901 30.4551 41.901 28.0924C41.9056 25.4424 37.1096 23.4126 37.1096 23.4126Z" fill="#424242"/>
<path d="M35.2136 17.3144C35.2136 17.3144 29.313 16.8264 22.2031 22.09V34.3641H48.2286V22.09C41.1142 16.8264 35.2136 17.3144 35.2136 17.3144ZM37.2138 33.0277C36.8592 33.0505 36.5774 33.0596 36.3137 33.0596C35.1136 33.0596 33.9635 32.8544 32.236 31.8464C29.4084 30.1952 26.4445 28.0788 26.4172 28.0606L24.8898 26.9659H32.0815L32.2224 27.048C32.2406 27.0571 34.1635 28.1883 36.0001 28.9911C36.1637 29.064 36.3319 29.1005 36.491 29.1005C36.9638 29.1005 37.3047 28.7995 37.3866 28.5167C37.4093 28.4392 37.4775 28.202 37.1093 27.9602C35.8 27.1164 32.3133 25.4744 32.2769 25.4607L31.9314 25.2965V20.5848H37.7093V23.0205C38.9458 23.5997 42.5007 25.4926 42.5007 28.0925C42.5053 30.9341 40.4778 32.827 37.2138 33.0277Z" fill="#424242"/>
<path d="M44.7286 18.368L53.2704 3.73574C53.2704 3.73574 48.0653 2.28985 43.7285 1.84741L39.5508 16.4204C41.0282 16.7807 42.792 17.3828 44.7286 18.368Z" fill="#424242"/>
<path d="M48.7339 20.8539L63.0945 7.48052C58.1077 4.9217 54.5709 4.17822 54.5709 4.17822L45.6836 18.8698C46.6655 19.4217 47.6884 20.0876 48.7339 20.8539Z" fill="#424242"/>
<path d="M34.6678 15.8685C34.845 15.8685 34.9814 15.873 35.0769 15.8776C35.1724 15.873 35.3133 15.8685 35.486 15.8685C36.0588 15.8685 37.168 15.9232 38.65 16.2197L41.9913 1.22709C41.9913 1.22709 36.868 0.79834 35.1587 0.79834C33.4494 0.79834 28.3262 1.22709 28.3262 1.22709L31.6629 16.1923C33.063 15.9187 34.1177 15.8685 34.6678 15.8685Z" fill="#424242"/>
<path d="M24.5992 18.8059L15.7482 4.17822C15.7482 4.17822 12.2161 4.9217 7.22461 7.48052L21.5125 20.7855C22.5717 20.0146 23.6036 19.3578 24.5992 18.8059Z" fill="#424242"/>
<path d="M30.7633 16.3838L26.5947 1.84277C22.2578 2.28977 17.0527 3.7311 17.0527 3.7311L25.5536 18.2995C27.5129 17.3189 29.2859 16.735 30.7633 16.3838Z" fill="#424242"/>
</svg>
