<svg width="27" height="27" viewBox="0 0 27 27" fill="none" xmlns="http://www.w3.org/2000/svg">
<path d="M5.85423 6.9734L6.9729 5.85474C7.07234 5.7553 7.17177 5.7553 7.27121 5.85474L20.3969 18.9804C20.4963 19.0798 20.4963 19.1793 20.3969 19.2787L19.2782 20.3974C19.1788 20.4968 19.0793 20.4968 18.9799 20.3974L5.85423 7.27171C5.7548 7.17228 5.7548 7.07284 5.85423 6.9734Z" fill="#4164F7"/>
<path d="M6.15306 18.6819L18.6821 6.15285C18.7815 6.05341 18.881 6.05341 18.9804 6.15285L20.0991 7.27152C20.1985 7.37095 20.1985 7.47039 20.0991 7.56983L7.57004 20.0989C7.4706 20.1983 7.37116 20.1983 7.27173 20.0989L6.15306 18.9802C6.05362 18.8808 6.05362 18.7813 6.15306 18.6819Z" fill="#4164F7"/>
</svg>
