<svg width="25" height="25" viewBox="0 0 25 25" fill="none" xmlns="http://www.w3.org/2000/svg">
<path d="M15.3789 12.5L24.158 3.74124C24.5425 3.35679 24.7585 2.83536 24.7585 2.29166C24.7585 1.74796 24.5425 1.22653 24.158 0.842075C23.7736 0.457622 23.2522 0.241638 22.7085 0.241638C22.1648 0.241638 21.6433 0.457622 21.2589 0.842075L12.5001 9.62124L3.74137 0.842075C3.35692 0.457622 2.83549 0.241638 2.29179 0.241638C1.74809 0.241638 1.22666 0.457622 0.842203 0.842075C0.457749 1.22653 0.241766 1.74796 0.241766 2.29166C0.241766 2.83536 0.457749 3.35679 0.842203 3.74124L9.62137 12.5L0.842203 21.2587C0.650841 21.4485 0.498953 21.6744 0.3953 21.9231C0.291647 22.1719 0.238281 22.4388 0.238281 22.7083C0.238281 22.9778 0.291647 23.2447 0.3953 23.4935C0.498953 23.7423 0.650841 23.9681 0.842203 24.1579C1.032 24.3493 1.25781 24.5012 1.50661 24.6048C1.7554 24.7085 2.02226 24.7618 2.29179 24.7618C2.56131 24.7618 2.82817 24.7085 3.07696 24.6048C3.32576 24.5012 3.55157 24.3493 3.74137 24.1579L12.5001 15.3787L21.2589 24.1579C21.4487 24.3493 21.6745 24.5012 21.9233 24.6048C22.1721 24.7085 22.4389 24.7618 22.7085 24.7618C22.978 24.7618 23.2448 24.7085 23.4936 24.6048C23.7424 24.5012 23.9682 24.3493 24.158 24.1579C24.3494 23.9681 24.5013 23.7423 24.6049 23.4935C24.7086 23.2447 24.762 22.9778 24.762 22.7083C24.762 22.4388 24.7086 22.1719 24.6049 21.9231C24.5013 21.6744 24.3494 21.4485 24.158 21.2587L15.3789 12.5Z" fill="#292929"/>
</svg>
