<svg width="20" height="19" viewBox="0 0 20 19" fill="none" xmlns="http://www.w3.org/2000/svg">
<path d="M0.632812 9.91687L0.632812 8.33484C0.632812 8.19421 0.703125 8.1239 0.84375 8.1239L19.4062 8.1239C19.5469 8.1239 19.6172 8.19421 19.6172 8.33484L19.6172 9.91687C19.6172 10.0575 19.5469 10.1278 19.4062 10.1278L0.84375 10.1278C0.703125 10.1278 0.632812 10.0575 0.632812 9.91687Z" fill="#4164F7"/>
<path d="M9.12305 17.9851L9.12305 0.266357C9.12305 0.125732 9.19336 0.0554199 9.33398 0.0554199L10.916 0.0554198C11.0566 0.0554198 11.127 0.125732 11.127 0.266357L11.127 17.9851C11.127 18.1257 11.0566 18.196 10.916 18.196L9.33398 18.196C9.19336 18.196 9.12305 18.1257 9.12305 17.9851Z" fill="#4164F7"/>
</svg>
