<svg width="11" height="21" viewBox="0 0 11 21" fill="none" xmlns="http://www.w3.org/2000/svg">
<path d="M0.420639 20.5378C0.151304 20.2417 -5.06964e-08 19.8402 -6.89955e-08 19.4216C-8.72945e-08 19.0029 0.151304 18.6014 0.420639 18.3054L7.53217 10.4905L0.420638 2.67556C0.158936 2.3778 0.014127 1.979 0.0174003 1.56505C0.0206737 1.1511 0.171768 0.755127 0.438138 0.46241C0.704509 0.169693 1.06484 0.00365825 1.44154 6.09721e-05C1.81823 -0.0035363 2.18113 0.155596 2.45209 0.44318L10.5794 9.37428C10.8487 9.67034 11 10.0718 11 10.4905C11 10.9091 10.8487 11.3106 10.5794 11.6067L2.4521 20.5378C2.18268 20.8337 1.81732 21 1.43637 21C1.05541 21 0.690055 20.8337 0.420639 20.5378Z" fill="#4164F7"/>
</svg>
