<svg width="11" height="21" viewBox="0 0 11 21" fill="none" xmlns="http://www.w3.org/2000/svg">
<path d="M10.5794 0.462303C10.8487 0.758366 11 1.15986 11 1.57849C11 1.99713 10.8487 2.39862 10.5794 2.69468L3.46783 10.5096L10.5794 18.3245C10.8411 18.6223 10.9859 19.0211 10.9826 19.435C10.9793 19.849 10.8282 20.2449 10.5619 20.5377C10.2955 20.8304 9.93515 20.9964 9.55846 21C9.18177 21.0036 8.81886 20.8445 8.5479 20.5569L0.420639 11.6258C0.151305 11.3297 4.75989e-07 10.9282 4.94288e-07 10.5096C5.12587e-07 10.091 0.151305 9.68947 0.42064 9.3934L8.5479 0.462303C8.81732 0.16633 9.18268 6.09557e-05 9.56363 6.09724e-05C9.94459 6.0989e-05 10.3099 0.16633 10.5794 0.462303Z" fill="#4164F7"/>
</svg>
