<svg width="60" height="63" viewBox="0 0 60 63" fill="none" xmlns="http://www.w3.org/2000/svg">
<path d="M32.4041 14.4545V29H29.7692V17.0185H29.6839L26.282 19.1918V16.777L29.897 14.4545H32.4041Z" fill="#4164F7"/>
<path fill-rule="evenodd" clip-rule="evenodd" d="M17.2367 62.131L10.8003 54.419L0.873047 53.4414L12.3276 32.0431L15.164 33.5638L6.10941 50.6172L12.5458 51.269L16.6912 56.2655L24.764 41.0586L27.7094 42.5793L17.2367 62.131Z" fill="#4164F7"/>
<path fill-rule="evenodd" clip-rule="evenodd" d="M43.3089 62.131L32.9453 42.5793L35.7817 41.0586L43.9635 56.2655L48.1089 51.269L54.5453 50.6172L45.3817 33.5638L48.3271 32.0431L59.7817 53.4414L49.7453 54.419L43.3089 62.131Z" fill="#4164F7"/>
<path fill-rule="evenodd" clip-rule="evenodd" d="M30.3279 3.80171C40.5825 3.80171 48.8734 12.0569 48.8734 22.2672C48.8734 32.4776 40.5825 40.7327 30.3279 40.7327C20.0734 40.7327 11.7825 32.4776 11.7825 22.2672C11.7825 12.0569 20.0734 3.80171 30.3279 3.80171ZM30.3279 0.543091C18.3279 0.543091 8.50977 10.319 8.50977 22.2672C8.50977 34.2155 18.3279 43.9914 30.3279 43.9914C42.3279 43.9914 52.1461 34.2155 52.1461 22.2672C52.1461 10.319 42.3279 0.543091 30.3279 0.543091Z" fill="#4164F7"/>
</svg>
