<svg width="62" height="66" viewBox="0 0 62 66" fill="none" xmlns="http://www.w3.org/2000/svg">
<path d="M53.9425 16.6988L56.5675 14.2313C56.808 13.9859 56.9427 13.6561 56.9427 13.3125C56.9427 12.969 56.808 12.6391 56.5675 12.3938C56.4455 12.2707 56.3003 12.1731 56.1404 12.1065C55.9804 12.0398 55.8089 12.0055 55.6356 12.0055C55.4624 12.0055 55.2908 12.0398 55.1309 12.1065C54.9709 12.1731 54.8258 12.2707 54.7038 12.3938L52.315 14.7825C47.0842 9.33101 40.0079 6.02686 32.47 5.51626V3.33751C32.4713 3.12594 32.417 2.91774 32.3125 2.73376H33.625C33.9731 2.73376 34.3069 2.59548 34.5531 2.34934C34.7992 2.1032 34.9375 1.76936 34.9375 1.42126C34.9375 1.07317 34.7992 0.739328 34.5531 0.493187C34.3069 0.247045 33.9731 0.108765 33.625 0.108765H28.375C28.0269 0.108765 27.6931 0.247045 27.4469 0.493187C27.2008 0.739328 27.0625 1.07317 27.0625 1.42126C27.0625 1.76936 27.2008 2.1032 27.4469 2.34934C27.6931 2.59548 28.0269 2.73376 28.375 2.73376H29.8975C29.786 2.91617 29.7228 3.12394 29.7138 3.33751V5.51626C22.0522 6.14405 14.8847 9.55178 9.56135 15.0975C4.23801 20.6433 1.12634 27.9442 0.8125 35.625C1.13546 43.5278 4.41959 51.0199 10.0124 56.6126C15.6051 62.2054 23.0972 65.4896 31 65.8125C38.9149 65.5258 46.4277 62.2534 52.028 56.653C57.6283 51.0527 60.9008 43.5399 61.1875 35.625C61.0693 28.6613 58.5045 21.9613 53.9425 16.6988ZM31 63.1875C23.7771 62.9147 16.9239 59.9232 11.8129 54.8122C6.70183 49.7011 3.71035 42.8479 3.4375 35.625C3.71035 28.4021 6.70183 21.5489 11.8129 16.4379C16.9239 11.3268 23.7771 8.33537 31 8.06251C38.227 8.3232 45.0871 11.3108 50.2007 16.4243C55.3142 21.5379 58.3018 28.3981 58.5625 35.625C58.3018 42.852 55.3142 49.7122 50.2007 54.8257C45.0871 59.9393 38.227 62.9268 31 63.1875Z" fill="#4164F7"/>
<path d="M30.9998 31.6875C30.4177 31.6938 29.8441 31.8282 29.3198 32.0813L16.1948 16.3313C15.9606 16.1097 15.653 15.9822 15.3308 15.9729C15.0085 15.9636 14.6941 16.0732 14.4475 16.2809C14.2009 16.4886 14.0394 16.7797 13.9937 17.0988C13.948 17.418 14.0214 17.7428 14.1998 18.0113L27.3248 33.7613C27.0744 34.2958 26.9402 34.8773 26.9311 35.4675C26.9003 36.2466 27.1016 37.0172 27.5093 37.6818C27.917 38.3463 28.5128 38.8749 29.2212 39.2005C29.9296 39.526 30.7188 39.634 31.4886 39.5106C32.2584 39.3872 32.9743 39.0381 33.5455 38.5074C34.1167 37.9768 34.5175 37.2885 34.6971 36.5298C34.8767 35.7711 34.827 34.9762 34.5544 34.2458C34.2818 33.5153 33.7984 32.8823 33.1656 32.4269C32.5328 31.9714 31.779 31.7141 30.9998 31.6875ZM30.9998 36.9375C30.7402 36.9375 30.4865 36.8605 30.2706 36.7163C30.0548 36.5721 29.8866 36.3671 29.7872 36.1273C29.6879 35.8875 29.6619 35.6236 29.7125 35.369C29.7632 35.1144 29.8882 34.8805 30.0717 34.6969C30.2553 34.5134 30.4892 34.3884 30.7438 34.3377C30.9984 34.2871 31.2623 34.3131 31.5021 34.4124C31.7419 34.5118 31.9469 34.68 32.0911 34.8958C32.2353 35.1117 32.3123 35.3654 32.3123 35.625C32.3123 35.9731 32.174 36.307 31.9279 36.5531C31.6818 36.7992 31.3479 36.9375 30.9998 36.9375Z" fill="#4164F7"/>
<path d="M31 15.9375C31.3481 15.9375 31.6819 15.7992 31.9281 15.5531C32.1742 15.3069 32.3125 14.9731 32.3125 14.625V12C32.3125 11.6519 32.1742 11.3181 31.9281 11.0719C31.6819 10.8258 31.3481 10.6875 31 10.6875C30.6519 10.6875 30.3181 10.8258 30.0719 11.0719C29.8258 11.3181 29.6875 11.6519 29.6875 12V14.625C29.6875 14.9731 29.8258 15.3069 30.0719 15.5531C30.3181 15.7992 30.6519 15.9375 31 15.9375Z" fill="#4164F7"/>
<path d="M31 55.3125C30.6519 55.3125 30.3181 55.4508 30.0719 55.6969C29.8258 55.9431 29.6875 56.2769 29.6875 56.625V59.25C29.6875 59.5981 29.8258 59.9319 30.0719 60.1781C30.3181 60.4242 30.6519 60.5625 31 60.5625C31.3481 60.5625 31.6819 60.4242 31.9281 60.1781C32.1742 59.9319 32.3125 59.5981 32.3125 59.25V56.625C32.3125 56.2769 32.1742 55.9431 31.9281 55.6969C31.6819 55.4508 31.3481 55.3125 31 55.3125Z" fill="#4164F7"/>
<path d="M54.625 34.3125H52C51.6519 34.3125 51.3181 34.4508 51.0719 34.6969C50.8258 34.9431 50.6875 35.2769 50.6875 35.625C50.6875 35.9731 50.8258 36.3069 51.0719 36.5531C51.3181 36.7992 51.6519 36.9375 52 36.9375H54.625C54.9731 36.9375 55.3069 36.7992 55.5531 36.5531C55.7992 36.3069 55.9375 35.9731 55.9375 35.625C55.9375 35.2769 55.7992 34.9431 55.5531 34.6969C55.3069 34.4508 54.9731 34.3125 54.625 34.3125Z" fill="#4164F7"/>
<path d="M10 34.3125H7.375C7.0269 34.3125 6.69306 34.4508 6.44692 34.6969C6.20078 34.9431 6.0625 35.2769 6.0625 35.625C6.0625 35.9731 6.20078 36.3069 6.44692 36.5531C6.69306 36.7992 7.0269 36.9375 7.375 36.9375H10C10.3481 36.9375 10.6819 36.7992 10.9281 36.5531C11.1742 36.3069 11.3125 35.9731 11.3125 35.625C11.3125 35.2769 11.1742 34.9431 10.9281 34.6969C10.6819 34.4508 10.3481 34.3125 10 34.3125Z" fill="#4164F7"/>
</svg>
