<svg width="69" height="69" viewBox="0 0 69 69" fill="none" xmlns="http://www.w3.org/2000/svg">
<path d="M67.0909 43.5588C63.2441 41.943 59.7816 39.6419 56.8003 36.7217C54.9866 34.9434 51.8631 34.9434 50.0434 36.7217C49.1635 37.5837 48.2296 38.3738 47.2685 39.1259C45.8396 38.5397 37.7604 36.698 36.8435 36.4137C35.0263 35.8485 33.5475 34.4654 32.8403 32.7269C38.4475 30.288 41.4195 23.9844 41.8932 17.6464V16.6973H44.2764C44.9947 16.6973 45.5758 16.1153 45.5758 15.3978C45.5758 14.6804 44.9947 14.0984 44.2764 14.0984H42.6521L42.4719 12.2711C42.0463 7.97006 39.0939 4.39833 34.9502 3.16988L32.5814 2.46768V1.58113C32.5814 0.863681 32.0003 0.281677 31.2819 0.281677H23.8863C23.1697 0.281677 22.5885 0.86197 22.5868 1.57771L22.5851 2.45927L20.1621 3.17829C16.0354 4.40161 13.0854 7.95808 12.6456 12.2354L12.4535 14.0984H10.8623C10.1449 14.0984 9.56288 14.6804 9.56288 15.3978C9.56288 16.1153 10.1449 16.6973 10.8623 16.6973H13.3073L13.309 17.7446C13.7776 23.9678 16.7157 30.2178 22.2586 32.684C21.559 34.4596 20.1487 35.8438 18.2909 36.4174C16.7123 36.9047 10.584 38.2464 10.584 38.2464C10.5832 38.2464 10.5823 38.2464 10.5823 38.2464C9.73554 38.4342 2.28483 40.2498 1.42537 46.2697C0.906815 49.8905 0.301856 53.3269 0.301001 53.3337C0.234131 53.711 0.339069 54.1002 0.585301 54.3946C0.832389 54.6891 1.19696 54.8583 1.58107 54.8583H41.3932C42.8668 57.8057 44.6427 60.5992 46.7271 63.2048L49.7143 66.9374C50.6195 68.0693 51.9715 68.719 53.4215 68.719C54.8724 68.719 56.2234 68.0693 57.1295 66.9374L60.1184 63.2015C64.0344 58.305 66.8938 52.7654 68.6163 46.7369C68.9859 45.4437 68.3294 44.0783 67.0909 43.5588ZM44.6689 40.9616C43.1081 41.954 41.4753 42.8355 39.7512 43.5588C39.258 43.767 38.8918 44.1316 38.6117 44.5495L39.7682 39.8398C39.8898 39.8686 44.2568 40.839 44.6689 40.9616ZM34.2116 5.66029C37.3375 6.58748 39.5642 9.28278 39.8857 12.528L40.0414 14.0982H32.5814V5.17724L34.2116 5.66029ZM29.9825 2.88045V14.0982H25.1586L25.1832 2.88045H29.9825ZM15.2311 12.5026C15.5627 9.27437 17.7885 6.59261 20.9017 5.66871L22.5793 5.17125L22.5599 14.0981H15.067L15.2311 12.5026ZM15.9045 17.6463V16.6971H39.296L39.2977 17.5482C38.7867 24.3432 34.9713 31.1973 27.5994 31.1973C20.2276 31.1973 16.412 24.343 15.9045 17.6463ZM27.5993 33.7961C28.5755 33.7961 29.4909 33.6853 30.3649 33.5068C30.8387 34.7639 31.5772 35.8739 32.5188 36.7817L27.6341 40.7485L22.6707 36.7393C23.5911 35.8367 24.311 34.7385 24.773 33.4967C25.6646 33.6827 26.6002 33.7961 27.5993 33.7961ZM15.3791 39.8407L18.5397 52.259H10.3057V41.0141C10.7694 40.8711 14.2175 40.1089 15.3791 39.8407ZM3.9972 46.6382C4.3093 44.4557 6.03093 43.0064 7.70679 42.0953V52.259H3.12077C3.34747 50.8969 3.68923 48.792 3.9972 46.6382ZM21.2215 52.259L17.9036 39.2232C18.3299 39.1115 20.0227 38.5397 20.4762 38.3095L26.8202 43.4319C27.0579 43.6231 27.3474 43.7195 27.6366 43.7195C27.9268 43.7195 28.2169 43.6231 28.4556 43.4285L34.7235 38.3391C35.1558 38.5539 36.8123 39.1081 37.2437 39.2206L34.0434 52.259H21.2215ZM36.7192 52.259C36.7192 52.259 38.1844 46.5883 38.2275 46.7381C38.7682 48.6305 39.4338 50.468 40.1952 52.259H36.7192ZM58.0888 61.5766L55.0999 65.3124C54.2801 66.3377 52.5636 66.3377 51.743 65.3124L48.7567 61.5799C45.0564 56.9558 42.3543 51.7207 40.7588 45.9544C46.4053 43.6604 50.7939 39.6248 51.8632 38.5774C52.2828 38.1663 52.8362 37.9396 53.4232 37.9396C54.0086 37.9396 54.5618 38.1663 54.9807 38.5774C58.1988 41.7279 61.9338 44.21 66.1165 46.0239C64.4894 51.7192 61.7882 56.9508 58.0888 61.5766Z" fill="#4164F7"/>
<path d="M49.2798 50.8021C48.7722 50.2945 47.9499 50.2945 47.4422 50.8021C46.9346 51.3097 46.9346 52.1319 47.4422 52.6397L50.9404 56.137C51.2305 56.4297 51.618 56.5904 52.0299 56.5904C52.442 56.5904 52.8285 56.4297 53.1162 56.1402L60.2859 48.9697C60.7935 48.4621 60.7935 47.6399 60.2859 47.1321C59.7792 46.6246 58.9561 46.6246 58.4484 47.1321L52.0299 53.5514L49.2798 50.8021Z" fill="#4164F7"/>
</svg>
