<svg width="67" height="58" viewBox="0 0 67 58" fill="none" xmlns="http://www.w3.org/2000/svg">
<path d="M57.9992 30.3808H41.4277V33.1427H57.9992V30.3808Z" fill="#4164F7"/>
<path d="M57.9997 22.0952H33.1426V24.8571H57.9997V22.0952Z" fill="#4164F7"/>
<path d="M60.7619 0H5.52381C2.48564 0 0 2.48564 0 5.52381V41.4286C0 44.4666 2.48564 46.9524 5.52381 46.9524H11.0476V58L17.9523 51.0953L24.857 58V46.9524H60.7619C63.7999 46.9524 66.2857 44.4666 66.2857 41.4286V5.52381C66.2857 2.48564 63.7999 0 60.7619 0ZM22.0952 51.3713L17.9523 47.2284L13.8094 51.3713V40.5999C15.1903 41.1523 16.5713 41.4284 17.9523 41.4284C19.3333 41.4284 20.7142 41.1523 22.0952 40.5999V51.3713ZM17.9523 38.6667C14.0856 38.6667 11.0476 35.6286 11.0476 31.762C11.0476 27.8953 14.0858 24.8573 17.9523 24.8573C21.8188 24.8573 24.857 27.8953 24.857 31.762C24.857 35.6286 21.819 38.6667 17.9523 38.6667ZM63.5238 41.4284C63.5238 43.0856 62.419 44.1903 60.7619 44.1903H24.8571V38.3904C26.5143 36.7331 27.619 34.2475 27.619 31.7618C27.619 26.5143 23.2 22.0951 17.9523 22.0951C12.7046 22.0951 8.28557 26.5141 8.28557 31.7618C8.28557 34.5237 9.39033 36.7333 11.0475 38.3904V44.1903H5.52381C3.86667 44.1903 2.7619 42.8095 2.7619 41.4284V5.52381C2.7619 3.86667 3.86667 2.7619 5.52381 2.7619H60.7619C62.419 2.7619 63.5238 4.14279 63.5238 5.52381V41.4284Z" fill="#4164F7"/>
<path d="M57.9994 13.8094H8.28516V16.5713H57.9994V13.8094Z" fill="#4164F7"/>
</svg>
