<svg width="64" height="64" viewBox="0 0 64 64" fill="none" xmlns="http://www.w3.org/2000/svg">
<path d="M61.7193 44.7323L54.5591 43.7142L51.3392 37.1908C50.9373 36.376 50.1233 35.87 49.2146 35.87C48.3053 35.87 47.4911 36.3759 47.0884 37.1908L46.5116 38.369C46.5116 38.369 44.5975 36.5495 44.4761 36.4926C42.8614 35.7345 34.9117 33.922 34.0574 33.6572C32.3647 33.1307 30.9872 31.8423 30.3284 30.2229C35.5515 27.9511 38.32 22.0793 38.7612 16.1754V15.2912H40.9812C41.6503 15.2912 42.1916 14.7491 42.1916 14.0808C42.1916 13.4125 41.6503 12.8703 40.9812 12.8703H39.4682L39.3003 11.1682C38.9039 7.16178 36.1537 3.8347 32.2938 2.69038L30.0872 2.03628V1.21045C30.0872 0.542141 29.5459 0 28.8768 0H21.9877C21.3202 0 20.7788 0.540547 20.7772 1.20727L20.7756 2.02845L18.5186 2.69822C14.6745 3.83775 11.9266 7.15063 11.5169 11.135L11.338 12.8703H9.85591C9.1876 12.8703 8.64546 13.4125 8.64546 14.0808C8.64546 14.7491 9.1876 15.2912 9.85591 15.2912H12.1334L12.135 16.2669C12.5715 22.0637 15.3084 27.8857 20.4716 30.183C19.8199 31.837 18.5063 33.1264 16.7757 33.6605C15.3052 34.1145 9.63371 35.3564 9.63371 35.3564C9.62349 35.358 9.61326 35.354 9.60303 35.3564C8.81426 35.5281 1.87467 37.202 1.06146 42.8396C0.580017 46.2061 0.0188844 49.4134 0.0180875 49.4198C-0.0434047 49.7712 0.0535484 50.1322 0.283713 50.4065C0.513877 50.6807 0.852681 50.8384 1.21048 50.8384H36.7164C36.945 50.8384 37.1468 50.758 37.3295 50.6477L40.5904 53.8061L39.3611 60.9757C39.2429 61.6676 39.4321 62.3689 39.8804 62.9001C40.5826 63.7339 41.8285 63.986 42.8002 63.4754L49.1905 60.09L55.6288 63.4754C55.9708 63.655 56.3522 63.7496 56.7321 63.7496C57.4311 63.7496 58.093 63.4407 58.5486 62.9017C58.9969 62.369 59.1869 61.6676 59.0686 60.9758L57.8235 53.8519L63.0324 48.7753C63.6833 48.1402 63.9135 47.2102 63.6321 46.3465C63.3513 45.481 62.6185 44.8631 61.7193 44.7323ZM43.2697 38.6013L45.3927 40.6542L43.908 43.6858L36.7093 44.7323C35.8101 44.8631 35.0773 45.481 34.7966 46.3463C34.5634 47.0633 34.6997 47.8152 35.119 48.4172H32.9108L36.1127 36.6904C36.4468 36.7699 41.9504 38.0087 43.2697 38.6013ZM31.6058 5.01022C34.5176 5.8739 36.5917 8.38459 36.8912 11.4075L37.0363 12.8702H30.0872V4.56025L31.6058 5.01022ZM27.6665 2.42077V12.8702H23.173L23.1959 2.42077H27.6665ZM13.9253 11.3839C14.2342 8.37675 16.3075 5.87868 19.2075 5.01805L20.7702 4.55467L20.7521 12.8701H13.7724L13.9253 11.3839ZM14.5526 16.1752V15.2911H36.3419L36.3435 16.0839C35.8675 22.4134 32.3134 28.7981 25.4465 28.7981C18.5796 28.7981 15.0255 22.4133 14.5526 16.1752ZM25.4465 31.2189C26.3559 31.2189 27.2085 31.1157 28.0227 30.9494C28.464 32.1204 29.152 33.1544 30.0291 34L25.4789 37.6951L20.8554 33.9606C21.7129 33.1197 22.3834 32.0968 22.8138 30.94C23.6442 31.1133 24.5159 31.2189 25.4465 31.2189ZM18.8112 35.4232L24.7207 40.1948C24.9421 40.3729 25.2117 40.4627 25.4812 40.4627C25.7514 40.4627 26.0217 40.3729 26.244 40.1916L32.0826 35.4507C32.4853 35.6509 33.6232 36.0504 33.7675 36.0914L30.4017 48.4172H19.4841L16.1854 36.335C16.6748 36.2088 18.3888 35.6375 18.8112 35.4232ZM13.8307 36.9024L16.9751 48.4172H9.33741V37.9339C9.70384 37.8212 12.8276 37.1332 13.8307 36.9024ZM3.4578 43.1845C3.75251 41.1388 5.35622 39.7865 6.9165 38.9385V48.4171H2.64299C2.85417 47.1532 3.16933 45.1973 3.4578 43.1845ZM56.1336 52.1179C55.5749 52.6632 55.3204 53.4465 55.452 54.2157L56.6908 61.2986L50.3147 57.9446C49.6386 57.5916 48.7929 57.59 48.1114 57.9462L41.7471 61.3853L42.9764 54.2157C43.1088 53.4465 42.8534 52.6632 42.2948 52.1179L37.0583 47.128L44.257 46.0814C45.0293 45.968 45.696 45.484 46.0404 44.7858L49.1689 38.2625L52.388 44.7858C52.7324 45.484 53.3992 45.9679 54.1721 46.0814L61.3425 47.0413L56.1336 52.1179Z" fill="#4164F7"/>
</svg>
