<svg width="82" height="54" viewBox="0 0 82 54" fill="none" xmlns="http://www.w3.org/2000/svg">
<path d="M74.2628 16.5853H63.302V3.03122H66.2578C67.0361 3.03122 67.6677 2.39966 67.6677 1.62129C67.6677 0.842927 67.0361 0.211365 66.2578 0.211365H63.302H45.0519H36.0582C35.2798 0.211365 34.6482 0.842927 34.6482 1.62129C34.6482 2.39966 35.2798 3.03122 36.0582 3.03122H44.4314C44.4314 3.03122 37.5663 34.5176 37.6241 34.7306C35.3256 35.0573 33.3026 36.1856 31.8284 37.8424V16.3575C31.8284 15.5792 31.1968 14.9476 30.4184 14.9476C29.6401 14.9476 29.0085 15.5792 29.0085 16.3575V39.7756L5.55183 41.2572C5.03785 41.2922 4.56418 41.5491 4.25209 41.9622L1.05044 46.1955C0.639252 46.7389 0.572232 47.4568 0.876088 48.068C1.18078 48.6776 1.79303 49.0575 2.47515 49.0575C2.47515 49.0575 30.6139 49.0199 30.7114 48.9987C32.3775 51.848 35.4358 53.7884 38.969 53.7884C43.8029 53.7884 47.7728 50.1837 48.4301 45.5288C48.5493 45.5609 60.6246 45.6022 60.6246 45.6022C61.3131 50.2212 65.2703 53.7882 70.0782 53.7882C74.8872 53.7882 78.8435 50.2212 79.5328 45.6022H81.3125V23.6349C81.3125 19.7485 78.1503 16.5853 74.2628 16.5853ZM4.5541 46.2378L6.21548 44.0403L29.5371 42.5679C29.4454 43.0985 29.3718 43.6363 29.3718 44.1926C29.3718 44.8958 29.459 45.5769 29.6031 46.2378H4.5541ZM74.2628 19.4052C76.5952 19.4052 78.4926 21.3034 78.4926 23.6349V39.6738C76.8707 36.6666 73.7277 34.5949 70.078 34.5949C65.2691 34.5949 61.3128 38.1619 60.6244 42.7827C60.6244 42.7827 51.8299 42.7239 51.8334 42.691C52.4329 36.5024 56.7563 28.9406 62.2389 27.5471L63.3018 27.2772V19.4052H74.2628ZM38.9689 50.9688C35.2321 50.9688 32.1918 47.9286 32.1918 44.1928C32.1918 40.455 35.2321 37.4149 38.9689 37.4149C42.7057 37.4149 45.7459 40.455 45.7459 44.1928C45.7458 47.9286 42.7057 50.9688 38.9689 50.9688ZM48.4297 42.8561C48.1176 40.6403 47.0693 38.6722 45.5108 37.2108L48.3847 28.5907C48.3847 28.5907 50.2738 29.2286 50.4299 29.2286C51.0109 29.2286 51.5543 28.867 51.759 28.2887C52.0189 27.5543 51.6342 26.7484 50.9007 26.4896L45.9275 24.7308C45.1931 24.4682 44.3872 24.8556 44.1284 25.5899C43.8685 26.3243 44.2532 27.1302 44.9875 27.389L45.7256 27.6497L43.0885 35.5604C42.2266 35.1474 41.2986 34.871 40.3182 34.7315C40.3246 34.7084 40.3412 34.6928 40.3457 34.67L47.3183 3.03106H60.4822V25.142C54.1109 27.4624 49.6939 35.5273 49.0265 42.4191C49.0146 42.5457 49.044 42.6633 49.0641 42.7825C49.0641 42.7827 48.5491 42.824 48.4297 42.8561ZM70.078 50.9688C66.3421 50.9688 63.302 47.9286 63.302 44.1928C63.302 40.455 66.3422 37.4149 70.078 37.4149C73.8148 37.4149 76.8551 40.455 76.8551 44.1928C76.8551 47.9286 73.8148 50.9688 70.078 50.9688Z" fill="#4164F7"/>
<path d="M37.9756 43.205C37.7122 43.4675 37.5615 43.8255 37.5615 44.2C37.5615 44.558 37.712 44.9142 37.9756 45.1969C38.2389 45.4595 38.596 45.61 38.9715 45.61C39.3479 45.61 39.7048 45.4595 39.9683 45.1969C40.2309 44.9344 40.3814 44.558 40.3814 44.2C40.3814 43.8053 40.2309 43.4492 39.9683 43.205C39.4607 42.6781 38.5015 42.6781 37.9756 43.205Z" fill="#4164F7"/>
<path d="M69.0878 43.205C68.8245 43.4675 68.6748 43.8255 68.6748 44.2C68.6748 44.558 68.8245 44.9142 69.0878 45.1969C69.3512 45.4595 69.7083 45.61 70.0847 45.61C70.4418 45.61 70.8181 45.4595 71.0806 45.1969C71.344 44.9344 71.4947 44.558 71.4947 44.2C71.4947 43.8053 71.3442 43.4492 71.0806 43.205C70.5547 42.6781 69.6148 42.6598 69.0878 43.205Z" fill="#4164F7"/>
</svg>
