<svg width="58" height="58" viewBox="0 0 58 58" fill="none" xmlns="http://www.w3.org/2000/svg">
<path d="M2.96283 58H42.9538C44.5875 58 45.9167 56.6708 45.9167 55.0372V42.2917C45.9167 41.6247 45.3753 41.0833 44.7083 41.0833C44.0413 41.0833 43.5 41.6247 43.5 42.2917V55.0372C43.5 55.3368 43.2535 55.5833 42.9538 55.5833H2.96283C2.66317 55.5833 2.41667 55.3368 2.41667 55.0372V5.3795C2.41667 5.07983 2.66317 4.83333 2.96283 4.83333H7.47233C7.97258 6.23742 9.30175 7.25 10.875 7.25H35.0417C36.6149 7.25 37.9441 6.23742 38.4443 4.83333H42.9538C43.2535 4.83333 43.5 5.07983 43.5 5.3795V14.6571C43.5 15.3241 44.0413 15.8654 44.7083 15.8654C45.3753 15.8654 45.9167 15.3241 45.9167 14.6571V5.3795C45.9167 3.74583 44.5875 2.41667 42.9538 2.41667H38.4443C37.9441 1.01258 36.6149 0 35.0417 0H10.875C9.30175 0 7.97258 1.01258 7.47233 2.41667H2.96283C1.32917 2.41667 0 3.74583 0 5.3795V55.0396C0 56.6708 1.32917 58 2.96283 58ZM10.875 2.41667H35.0417C35.7087 2.41667 36.25 2.96042 36.25 3.625C36.25 4.28958 35.7087 4.83333 35.0417 4.83333H10.875C10.208 4.83333 9.66667 4.28958 9.66667 3.625C9.66667 2.96042 10.208 2.41667 10.875 2.41667Z" fill="#4164F7"/>
<path d="M36.2503 18.125C36.2503 17.458 35.709 16.9167 35.042 16.9167H10.8753C10.2083 16.9167 9.66699 17.458 9.66699 18.125C9.66699 18.792 10.2083 19.3334 10.8753 19.3334H35.042C35.709 19.3334 36.2503 18.792 36.2503 18.125Z" fill="#4164F7"/>
<path d="M29.6915 30.2083C29.6915 29.5413 29.1502 29 28.4832 29H10.8753C10.2083 29 9.66699 29.5413 9.66699 30.2083C9.66699 30.8753 10.2083 31.4167 10.8753 31.4167H28.4832C29.1526 31.4167 29.6915 30.8753 29.6915 30.2083Z" fill="#4164F7"/>
<path d="M10.8753 41.0833C10.2083 41.0833 9.66699 41.6246 9.66699 42.2916C9.66699 42.9586 10.2083 43.5 10.8753 43.5H22.9587C23.6257 43.5 24.167 42.9586 24.167 42.2916C24.167 41.6246 23.6257 41.0833 22.9587 41.0833H10.8753Z" fill="#4164F7"/>
<path d="M32.6251 42.2917C32.7315 42.2917 32.8402 42.2772 32.9466 42.2482L38.5484 40.7039C38.749 40.6483 38.9351 40.542 39.0825 40.3922L56.8063 22.6659C58.3941 21.0757 58.3941 18.4899 56.8063 16.8997C55.2669 15.3603 52.5796 15.3603 51.0401 16.8997L33.3163 34.626C33.1689 34.7758 33.0626 34.9571 33.007 35.1601L31.4627 40.7595C31.3467 41.1776 31.4651 41.6271 31.7721 41.934C31.9992 42.166 32.3086 42.2917 32.6251 42.2917ZM35.2496 36.1098L52.7487 18.6107C53.3771 17.9824 54.4694 17.9824 55.0977 18.6107C55.7454 19.2584 55.7454 20.3121 55.0977 20.9597L37.5986 38.4588L34.3579 39.353L35.2496 36.1098Z" fill="#4164F7"/>
</svg>
