<svg width="72" height="50" viewBox="0 0 72 50" fill="none" xmlns="http://www.w3.org/2000/svg">
<path d="M71.5656 17.3891L64.2624 3.40628C63.8312 2.57754 63.0917 1.95135 62.2033 1.6626C61.3148 1.37385 60.3485 1.44565 59.5124 1.86253L52.3578 5.45471H46.9546L36.9202 0.912526C36.1471 0.558541 35.2722 0.495296 34.4562 0.734401L19.5531 5.06878L12.4874 1.53596C11.6514 1.11909 10.6851 1.04729 9.7966 1.33604C8.90814 1.62479 8.16865 2.25098 7.73743 3.07971L0.434309 17.0625C0.213881 17.4841 0.0793784 17.9452 0.0386081 18.4192C-0.0021622 18.8931 0.0516117 19.3705 0.196809 19.8235C0.505779 20.7262 1.15579 21.4721 2.00775 21.9016L9.2515 25.5235L25.3718 38.1407C25.7725 38.4398 26.2256 38.6613 26.7077 38.7938L43.8968 43.0688C44.1765 43.15 44.4665 43.19 44.7578 43.1875C45.2267 43.1937 45.6921 43.1048 46.1258 42.9262C46.5595 42.7476 46.9525 42.4831 47.2812 42.1485L58.2062 31.2235L58.2656 31.1641L62.8671 25.7906L69.9921 22.2282C70.4179 22.0133 70.797 21.7166 71.1078 21.3548C71.4186 20.9931 71.6548 20.5736 71.8031 20.1203C71.9492 19.6725 72.0034 19.1998 71.9626 18.7305C71.9218 18.2612 71.7868 17.805 71.5656 17.3891ZM57.1968 28.7891L45.0249 19.9125C44.8162 19.7626 44.5644 19.6845 44.3075 19.6898C44.0505 19.6952 43.8023 19.7837 43.5999 19.9422L39.7999 22.7922C38.3573 23.8623 36.6087 24.44 34.8124 24.44C33.0162 24.44 31.2676 23.8623 29.8249 22.7922L28.2218 21.575C28.0812 21.4783 27.965 21.3501 27.8826 21.2007C27.8001 21.0512 27.7537 20.8846 27.7468 20.7141C27.7279 20.5434 27.7503 20.3706 27.8124 20.2104C27.8744 20.0501 27.9741 19.9073 28.1031 19.7938L39.7109 8.15628C39.9366 7.94603 40.2337 7.82931 40.5421 7.82971H51.9124L60.6999 24.6625L57.1968 28.7891ZM2.48275 19.0813C2.42534 18.9327 2.40092 18.7735 2.41117 18.6146C2.42142 18.4557 2.46611 18.3009 2.54212 18.161L9.84525 4.17815C9.94619 3.98379 10.1002 3.82205 10.2894 3.7117C10.4785 3.60135 10.6951 3.54691 10.914 3.55471C11.0898 3.54826 11.2642 3.58928 11.4187 3.67346L17.7718 6.82034L9.37025 22.911L3.0765 19.7641C2.93245 19.7024 2.80421 19.609 2.70139 19.4907C2.59857 19.3725 2.52382 19.2325 2.48275 19.0813ZM45.6187 40.4563C45.4719 40.5992 45.2922 40.7037 45.0955 40.7607C44.8987 40.8177 44.691 40.8253 44.4906 40.7828L27.2718 36.4781C27.113 36.4336 26.9626 36.3634 26.8265 36.2703L11.389 24.1875L20.1765 7.35471L35.1093 3.02034C35.3842 2.93627 35.6805 2.95743 35.9406 3.07971L41.1953 5.45471H40.5421C40.0736 5.45193 39.6092 5.54236 39.176 5.72075C38.7428 5.89913 38.3494 6.16191 38.0187 6.49378L26.4109 18.1016C26.0494 18.4628 25.77 18.8976 25.5914 19.3764C25.4128 19.8552 25.3394 20.3668 25.376 20.8765C25.4126 21.3862 25.5584 21.882 25.8036 22.3304C26.0487 22.7788 26.3875 23.1691 26.7968 23.475L28.3999 24.6922C30.2556 26.0661 32.5035 26.8077 34.8124 26.8077C37.1214 26.8077 39.3693 26.0661 41.2249 24.6922L44.3124 22.3469L55.564 30.511L45.6187 40.4563ZM69.5171 19.4078C69.4706 19.5565 69.3939 19.6939 69.2917 19.8114C69.1895 19.9289 69.0641 20.024 68.9234 20.0907L62.6296 23.2375L54.2281 7.1469L60.5812 4.00003C60.8577 3.86337 61.1764 3.83963 61.4701 3.93382C61.7637 4.02801 62.0092 4.23275 62.1546 4.50471L69.4578 18.4875C69.5338 18.6275 69.5785 18.7822 69.5887 18.9411C69.599 19.1001 69.5745 19.2593 69.5171 19.4078ZM32.4077 48.4719C32.3426 48.7312 32.1939 48.9617 31.9847 49.1281C31.7754 49.2944 31.5172 49.3872 31.2499 49.3922L30.9531 49.3328L22.0171 47.1063C21.4681 46.9705 20.9593 46.7059 20.5327 46.3344L13.8531 40.5157C13.7134 40.4219 13.5953 40.2995 13.5065 40.1566C13.4177 40.0137 13.3602 39.8536 13.338 39.6869C13.3157 39.5201 13.3291 39.3506 13.3773 39.1894C13.4256 39.0282 13.5075 38.8792 13.6176 38.752C13.7278 38.6249 13.8637 38.5227 14.0164 38.452C14.1691 38.3814 14.335 38.344 14.5033 38.3423C14.6715 38.3407 14.8381 38.3748 14.9922 38.4423C15.1462 38.5099 15.2841 38.6095 15.3968 38.7344L22.1062 44.5532C22.2413 44.6721 22.405 44.754 22.5812 44.7906L31.5468 47.0469C31.8485 47.1241 32.1078 47.3167 32.2688 47.5833C32.4299 47.8498 32.4798 48.1689 32.4077 48.4719Z" fill="#4164F7"/>
</svg>
